# xmcd
#
# Track frame offsets:
#	150
#	15578
#	30955
#	47540
#	61670
#	77693
#	90878
#	103970
#	117803
#	131093
#	148870
#	164513
#	181005
#	194073
#	207563
#
# Disc length: 2971
#
# Revision: 1
# Processed by: cddbd v1.5.2PL0 Copyright (c) Steve Scherf et al.
# Submitted via: kJams Pro (development) 1.0patch48
#
DISCID=c50b990f
DTITLE=Various Artist - MM6064
DYEAR=1995
DGENRE=Country
TTITLE0=Alan Jackson - Summertime Blues
TTITLE1=Diamond Rio - Love a Little Stronger
TTITLE2=Kathy Mattea - Nobody's Gonna Rain on Our Parade
TTITLE3=Mavericks - Oh What a Thrill
TTITLE4=George Strait - The Man in Love With You
TTITLE5=Pam Tillis - WHEN YOU WALK IN THE ROOM
TTITLE6=Vince Gill - What the Cowgirls Do
TTITLE7=Dwight Yoakum - Inside the Pocket of a Clown
TTITLE8=Linda Davis - Love Didn't Do It
TTITLE9=Mark Chestnutt - She Dreams
TTITLE10=Rick Trevino - She Can't Say I Didn't Cry
TTITLE11=Michelle Wright - One Good Man
TTITLE12=Tim McGraw - Down on the Farm
TTITLE13=Joe Diffie - Third Rock From the Sun
TTITLE14=Confederate Railroad - Elvis and Andy
EXTD=
EXTT0=
EXTT1=
EXTT2=
EXTT3=
EXTT4=
EXTT5=
EXTT6=
EXTT7=
EXTT8=
EXTT9=
EXTT10=
EXTT11=
EXTT12=
EXTT13=
EXTT14=
PLAYORDER=
